<svg width="113" height="820" viewBox="0 0 113 820" fill="none" xmlns="http://www.w3.org/2000/svg">
<g clip-path="url(#clip0)">
<path opacity="0.15" d="M20.8 763.654V748.054H79.3V716.254H92V763.654H20.8ZM20.8 706.72L20.8 657.62H32.9V691.52H49.7V659.72H61.9V691.52H79.9V657.62H92V706.72H20.8ZM76.2 600.234V633.534L92 640.334L92 656.034L20.8 623.334V610.734L92 578.034V593.434L76.2 600.234ZM64.3 605.334L37.6 616.834L64.3 628.334V605.334ZM20.8 571.955L20.8 544.455C20.8 536.655 22.2 529.955 25 524.355C27.8 518.755 31.8667 514.488 37.2 511.555C42.5333 508.555 48.9 507.055 56.3 507.055C63.7667 507.055 70.1667 508.521 75.5 511.455C80.8333 514.388 84.9333 518.655 87.8 524.255C90.6 529.855 92 536.588 92 544.455V571.955H20.8ZM79.4 545.455C79.4 530.255 71.7 522.655 56.3 522.655C41.0333 522.655 33.4 530.255 33.4 545.455V556.355H79.4V545.455ZM20.8 494.806L20.8 445.706H32.9V479.606H49.7V447.806H61.9V479.606H79.9V445.706H92V494.806H20.8ZM92 374.843V391.343L68.3 400.443C66.4333 401.176 65.1333 402.31 64.4 403.843C63.6667 405.31 63.3 407.176 63.3 409.443V419.543H92L92 434.943H20.8V403.243C20.8 394.976 22.6 388.71 26.2 384.443C29.8 380.176 34.9667 378.043 41.7 378.043C46.4333 378.043 50.5 379.31 53.9 381.843C57.3 384.31 59.7333 387.876 61.2 392.543C62.0667 388.343 64.9667 385.31 69.9 383.443L92 374.843ZM51.4 405.543C51.4 401.076 50.6667 397.81 49.2 395.743C47.6667 393.676 45.3 392.643 42.1 392.643C38.9 392.643 36.5667 393.676 35.1 395.743C33.5667 397.81 32.8 401.076 32.8 405.543V419.743H51.4V405.543ZM55.2 318.442C56.4 314.309 58.5 311.109 61.5 308.842C64.5 306.576 68.1667 305.442 72.5 305.442C78.5 305.442 83.2667 307.676 86.8 312.142C90.2667 316.609 92 322.676 92 330.342V364.142H20.8L20.8 331.342C20.8 323.942 22.4667 318.109 25.8 313.842C29.0667 309.509 33.5667 307.342 39.3 307.342C43.0333 307.342 46.3 308.342 49.1 310.342C51.9 312.276 53.9333 314.976 55.2 318.442ZM49.8 348.942V333.942C49.8 329.942 49.1333 326.976 47.8 325.042C46.4 323.042 44.2667 322.042 41.4 322.042C38.4667 322.042 36.3 323.042 34.9 325.042C33.5 326.976 32.8 329.942 32.8 333.942V348.942H49.8ZM80 332.142C80 327.942 79.3 324.909 77.9 323.042C76.4333 321.109 74.1333 320.142 71 320.142C67.8 320.142 65.4667 321.109 64 323.042C62.5333 324.909 61.8 327.942 61.8 332.142V348.942H80V332.142ZM92.9 261.813C92.9 268.88 91.4333 275.047 88.5 280.313C85.5 285.513 81.2333 289.547 75.7 292.413C70.1667 295.213 63.7 296.613 56.3 296.613C48.9 296.613 42.4667 295.213 37 292.413C31.5333 289.547 27.3333 285.513 24.4 280.313C21.4 275.047 19.9 268.88 19.9 261.813C19.9 254.747 21.4 248.613 24.4 243.413C27.3333 238.213 31.5333 234.213 37 231.413C42.4667 228.613 48.9 227.213 56.3 227.213C63.7 227.213 70.1667 228.613 75.7 231.413C81.2333 234.213 85.5 238.213 88.5 243.413C91.4333 248.613 92.9 254.747 92.9 261.813ZM80.7 261.813C80.7 255.813 78.6 251.147 74.4 247.813C70.2 244.413 64.1667 242.713 56.3 242.713C48.4333 242.713 42.4333 244.413 38.3 247.813C34.1667 251.147 32.1 255.813 32.1 261.813C32.1 267.813 34.1667 272.513 38.3 275.913C42.4333 279.247 48.4333 280.913 56.3 280.913C64.2333 280.913 70.3 279.247 74.5 275.913C78.6333 272.513 80.7 267.813 80.7 261.813ZM76.2 169.374L76.2 202.674L92 209.474V225.174L20.8 192.474V179.874L92 147.174V162.574L76.2 169.374ZM64.3 174.474L37.6 185.974L64.3 197.474L64.3 174.474ZM92 80.9953V97.4953L68.3 106.595C66.4333 107.329 65.1333 108.462 64.4 109.995C63.6667 111.462 63.3 113.329 63.3 115.595V125.695H92V141.095H20.8V109.395C20.8 101.129 22.6 94.862 26.2 90.5953C29.8 86.3286 34.9667 84.1953 41.7 84.1953C46.4333 84.1953 50.5 85.462 53.9 87.9953C57.3 90.462 59.7333 94.0286 61.2 98.6953C62.0667 94.4953 64.9667 91.462 69.9 89.5953L92 80.9953ZM51.4 111.695C51.4 107.229 50.6667 103.962 49.2 101.895C47.6667 99.8286 45.3 98.7953 42.1 98.7953C38.9 98.7953 36.5667 99.8286 35.1 101.895C33.5667 103.962 32.8 107.229 32.8 111.695V125.895H51.4V111.695ZM20.8 70.2945L20.8 42.7945C20.8 34.9945 22.2 28.2945 25 22.6945C27.8 17.0945 31.8667 12.8279 37.2 9.89453C42.5333 6.89453 48.9 5.39453 56.3 5.39453C63.7667 5.39453 70.1667 6.86119 75.5 9.79453C80.8333 12.7279 84.9333 16.9945 87.8 22.5945C90.6 28.1945 92 34.9279 92 42.7945V70.2945H20.8ZM79.4 43.7945C79.4 28.5945 71.7 20.9945 56.3 20.9945C41.0333 20.9945 33.4 28.5945 33.4 43.7945V54.6945H79.4V43.7945Z" fill="#ED2020"/>
</g>
<defs>
<clipPath id="clip0">
<rect width="113" height="820" fill="white"/>
</clipPath>
</defs>
</svg>
