<svg width="113" height="820" viewBox="0 0 113 820" fill="none" xmlns="http://www.w3.org/2000/svg">
<g clip-path="url(#clip0)">
<path opacity="0.15" d="M20.8 403.841H92V417.641H53.1L92 434.041V444.141L53.6 460.641H92V474.341H20.8V461.941L73.3 438.941L20.8 416.141V403.841ZM76.2 341.882L76.2 375.182L92 381.982V397.682L20.8 364.982V352.382L92 319.682V335.082L76.2 341.882ZM64.3 346.982L37.6 358.482L64.3 369.982L64.3 346.982ZM33.5 306.187L33.5 328.487H20.8L20.8 268.087H33.5V290.387H92V306.187H33.5ZM92.9 230.496C92.9 237.696 91.4 243.996 88.4 249.396C85.3333 254.729 81.0667 258.829 75.6 261.696C70.0667 264.563 63.6333 265.996 56.3 265.996C49.0333 265.996 42.6667 264.563 37.2 261.696C31.6667 258.829 27.4 254.729 24.4 249.396C21.4 243.996 19.9 237.696 19.9 230.496C19.9 225.763 20.6333 221.263 22.1 216.996C23.5 212.663 25.5 209.129 28.1 206.396L39.3 211.296C36.9 214.496 35.1667 217.629 34.1 220.696C32.9667 223.696 32.4 226.863 32.4 230.196C32.4 236.596 34.4333 241.496 38.5 244.896C42.5667 248.296 48.5 249.996 56.3 249.996C64.1667 249.996 70.1667 248.296 74.3 244.896C78.3667 241.496 80.4 236.596 80.4 230.196C80.4 226.863 79.8667 223.696 78.8 220.696C77.6667 217.629 75.9 214.496 73.5 211.296L84.7 206.396C87.3 209.129 89.3333 212.663 90.8 216.996C92.2 221.263 92.9 225.763 92.9 230.496ZM20.8 131.839H92L92 147.139H62.1V180.139H92V195.439H20.8V180.139H49.6V147.139H20.8V131.839ZM20.8 117.509L20.8 68.4094H32.9L32.9 102.309H49.7L49.7 70.5094H61.9V102.309H79.9V68.4094H92V117.509H20.8ZM92.9 33.7227C92.9 39.1227 92.2 44.3227 90.8 49.3227C89.3333 54.256 87.3 58.356 84.7 61.6227L73.5 56.6227C78.3 49.756 80.7 42.0893 80.7 33.6227C80.7 29.0893 80 25.6227 78.6 23.2227C77.1333 20.756 75.1 19.5227 72.5 19.5227C70.2333 19.5227 68.4667 20.656 67.2 22.9227C65.8667 25.1227 64.6 29.0227 63.4 34.6227C62.1333 40.8893 60.6 45.8893 58.8 49.6227C56.9333 53.2893 54.7 55.9893 52.1 57.7227C49.4333 59.3893 46.1333 60.2227 42.2 60.2227C37.9333 60.2227 34.1 59.056 30.7 56.7227C27.3 54.3227 24.6667 50.9893 22.8 46.7227C20.8667 42.456 19.9 37.5227 19.9 31.9227C19.9 26.856 20.6333 21.9893 22.1 17.3227C23.5667 12.656 25.5667 8.92265 28.1 6.12265L39.3 11.1227C34.5 17.3893 32.1 24.2893 32.1 31.8227C32.1 35.8227 32.9 39.0227 34.5 41.4227C36.1 43.8227 38.2667 45.0227 41 45.0227C42.6 45.0227 43.9333 44.5893 45 43.7227C46.0667 42.7893 47.0333 41.256 47.9 39.1227C48.7 36.9893 49.5 33.956 50.3 30.0227C52.3 20.8893 54.9 14.3227 58.1 10.3227C61.3 6.25599 65.6667 4.22266 71.2 4.22266C77.8667 4.22266 83.1667 6.82266 87.1 12.0227C90.9667 17.2227 92.9 24.456 92.9 33.7227Z" fill="#ED2020"/>
</g>
<defs>
<clipPath id="clip0">
<rect width="113" height="820" fill="white"/>
</clipPath>
</defs>
</svg>
