<svg width="113" height="820" viewBox="0 0 113 820" fill="none" xmlns="http://www.w3.org/2000/svg">
<g clip-path="url(#clip0)">
<path opacity="0.15" d="M33.5 324.84V347.14H20.8L20.8 286.74H33.5L33.5 309.04H92V324.84H33.5ZM20.8 278.447L20.8 229.347H32.9V263.247H49.7V231.447H61.9L61.9 263.247H79.9L79.9 229.347H92L92 278.447H20.8ZM76.2 171.96V205.26L92 212.06V227.76L20.8 195.06V182.46L92 149.76V165.16L76.2 171.96ZM64.3 177.06L37.6 188.56L64.3 200.06V177.06ZM20.8 72.9812H92V86.7812H53.1L92 103.181V113.281L53.6 129.781H92V143.481H20.8V131.081L73.3 108.081L20.8 85.2812V72.9812ZM92.9 33.7227C92.9 39.1227 92.2 44.3227 90.8 49.3227C89.3333 54.256 87.3 58.356 84.7 61.6227L73.5 56.6227C78.3 49.756 80.7 42.0893 80.7 33.6227C80.7 29.0893 80 25.6227 78.6 23.2227C77.1333 20.756 75.1 19.5227 72.5 19.5227C70.2333 19.5227 68.4667 20.656 67.2 22.9227C65.8667 25.1227 64.6 29.0227 63.4 34.6227C62.1333 40.8893 60.6 45.8893 58.8 49.6227C56.9333 53.2893 54.7 55.9893 52.1 57.7227C49.4333 59.3893 46.1333 60.2227 42.2 60.2227C37.9333 60.2227 34.1 59.056 30.7 56.7227C27.3 54.3227 24.6667 50.9893 22.8 46.7227C20.8667 42.456 19.9 37.5227 19.9 31.9227C19.9 26.856 20.6333 21.9893 22.1 17.3227C23.5667 12.656 25.5667 8.92265 28.1 6.12265L39.3 11.1227C34.5 17.3893 32.1 24.2893 32.1 31.8227C32.1 35.8227 32.9 39.0227 34.5 41.4227C36.1 43.8227 38.2667 45.0227 41 45.0227C42.6 45.0227 43.9333 44.5893 45 43.7227C46.0667 42.7893 47.0333 41.256 47.9 39.1227C48.7 36.9893 49.5 33.956 50.3 30.0227C52.3 20.8893 54.9 14.3227 58.1 10.3227C61.3 6.25599 65.6667 4.22266 71.2 4.22266C77.8667 4.22266 83.1667 6.82266 87.1 12.0227C90.9667 17.2227 92.9 24.456 92.9 33.7227Z" fill="#ED2020"/>
</g>
<defs>
<clipPath id="clip0">
<rect width="113" height="820" fill="white"/>
</clipPath>
</defs>
</svg>
